<?xml version="1.0" standalone="no"?>
<!DOCTYPE svg PUBLIC "-//W3C//DTD SVG 20010904//EN"
 "http://www.w3.org/TR/2001/REC-SVG-20010904/DTD/svg10.dtd">
<svg version="1.0" xmlns="http://www.w3.org/2000/svg"
 width="656.000000pt" height="570.000000pt" viewBox="0 0 656.000000 570.000000"
 preserveAspectRatio="xMidYMid meet">

<g transform="translate(0.000000,570.000000) scale(0.100000,-0.100000)"
fill="#000000" stroke="none">
<path d="M0 2850 l0 -2850 3280 0 3280 0 0 2850 0 2850 -3280 0 -3280 0 0
-2850z m3278 2514 c12 -14 22 -38 22 -55 0 -42 -48 -89 -90 -89 -41 0 -90 47
-90 87 0 83 102 120 158 57z m187 -604 c131 -179 239 -326 240 -328 1 -1 28
22 59 52 108 105 257 189 405 227 41 10 78 19 83 19 6 0 -12 -18 -40 -39 -110
-87 -147 -165 -146 -301 1 -63 8 -105 28 -163 14 -42 26 -84 26 -91 0 -54
-311 -182 -552 -227 -73 -13 -174 -23 -284 -26 -258 -8 -459 18 -677 89 -115
37 -296 124 -311 149 -7 12 -1 41 17 97 68 207 32 366 -106 469 l-62 45 45 -7
c158 -26 371 -141 475 -256 20 -22 38 -39 39 -37 2 1 115 155 251 341 195 265
251 335 260 325 7 -7 119 -159 250 -338z m-1349 95 c15 -23 15 -27 0 -50 -29
-44 -86 -28 -86 25 0 53 57 69 86 25z m2280 0 c15 -23 15 -27 0 -50 -29 -44
-86 -28 -86 25 0 53 57 69 86 25z m-2296 -314 c14 -9 36 -38 49 -64 l23 -47
-21 -69 c-61 -201 10 -327 252 -445 132 -64 298 -118 457 -148 167 -32 513
-32 680 0 159 30 325 84 457 148 241 118 314 246 252 444 -19 61 -19 67 -4
106 32 84 105 117 192 88 92 -30 252 -114 332 -175 188 -141 281 -321 281
-542 0 -119 -17 -193 -71 -304 -45 -95 -151 -211 -256 -281 -86 -58 -251 -143
-353 -183 -47 -18 -89 -35 -93 -39 -5 -4 5 -45 21 -91 54 -152 67 -236 67
-429 0 -133 -5 -195 -19 -260 -25 -117 -55 -210 -67 -210 -5 0 -27 11 -49 25
-22 14 -42 25 -44 25 -2 0 -12 -24 -22 -52 -25 -77 -83 -190 -154 -298 -63
-96 -246 -330 -258 -330 -4 0 -25 11 -47 25 -22 13 -43 25 -46 25 -3 0 -21
-24 -40 -53 -78 -120 -262 -282 -392 -343 -37 -18 -38 -18 -90 8 -123 60 -293
212 -374 334 -20 30 -38 54 -40 54 -2 0 -22 -12 -44 -26 -22 -14 -44 -24 -49
-22 -11 4 -122 138 -187 225 -108 146 -233 374 -233 425 0 30 -19 30 -65 -2
l-45 -31 -11 28 c-6 15 -21 69 -34 119 -66 256 -56 517 30 762 18 53 33 97 32
98 -1 0 -40 15 -87 33 -102 40 -268 125 -353 183 -34 22 -97 76 -139 120 -126
128 -191 285 -191 463 0 110 14 176 63 280 70 152 209 281 404 375 172 83 225
93 286 51z m-415 -1446 c37 -13 70 -27 75 -30 4 -3 -3 -40 -17 -82 -57 -182
-89 -423 -77 -598 7 -115 36 -296 59 -373 l16 -52 75 51 c42 28 77 49 79 47 2
-1 11 -43 20 -93 9 -49 32 -126 50 -170 78 -186 245 -447 413 -642 l62 -72 75
44 74 44 36 -67 c97 -184 299 -387 499 -501 l55 -32 49 25 c203 103 419 313
527 514 30 55 39 60 70 39 11 -8 41 -26 67 -41 l46 -27 100 125 c247 307 407
601 428 787 4 33 10 61 14 64 3 2 40 -18 81 -46 l74 -49 13 42 c47 157 56 239
56 468 0 241 -12 328 -68 505 l-23 73 76 28 c42 15 81 29 88 31 14 6 54 -118
82 -258 71 -344 49 -660 -70 -1014 -28 -82 -53 -152 -55 -154 -2 -2 -21 7 -41
21 -21 13 -50 32 -64 41 l-26 17 -66 -132 c-102 -206 -253 -427 -447 -652
-120 -140 -109 -134 -175 -97 -30 17 -56 31 -58 31 -3 0 -29 -33 -60 -73 -78
-102 -238 -254 -332 -317 -44 -30 -126 -78 -183 -107 l-104 -54 -76 42 c-190
103 -356 236 -482 385 -43 50 -82 99 -87 109 -10 17 -14 16 -67 -13 -30 -18
-60 -32 -64 -32 -24 0 -292 334 -413 515 -61 91 -193 333 -211 385 -3 10 -22
1 -67 -29 -34 -24 -65 -41 -67 -38 -10 9 -64 162 -88 247 -93 323 -101 658
-26 979 31 130 60 211 76 211 7 0 43 -11 79 -25z"/>
<path d="M1805 4176 c-178 -120 -240 -327 -153 -513 61 -133 298 -294 638
-437 63 -27 116 -50 118 -51 2 -2 -16 -27 -40 -57 -94 -115 -138 -265 -145
-491 -5 -140 7 -320 24 -364 4 -9 29 -13 93 -13 l89 0 7 -57 c16 -140 83 -307
169 -428 43 -60 135 -156 135 -141 0 4 -11 45 -24 90 -104 343 -93 642 29 820
l44 65 -34 21 c-76 47 -144 161 -145 241 l0 46 58 -14 c68 -17 284 -29 337
-19 l39 8 -53 29 c-77 42 -241 178 -241 200 0 4 36 -6 80 -22 111 -40 231 -59
377 -59 135 0 229 15 361 59 45 15 82 24 82 20 0 -12 -157 -157 -209 -192
l-52 -34 32 -7 c77 -15 276 -4 352 20 13 4 17 -1 17 -24 0 -87 -61 -195 -135
-239 l-43 -27 23 -31 c41 -52 83 -156 101 -244 13 -66 15 -116 11 -225 -6
-152 -30 -271 -86 -424 -34 -94 -30 -95 56 -18 56 51 132 159 168 239 28 65
70 201 85 278 10 52 14 57 42 63 17 3 59 6 93 6 l62 0 7 53 c22 187 -5 474
-59 627 -27 74 -101 206 -130 230 -25 21 -17 36 28 49 65 20 283 109 372 154
160 79 288 178 344 265 115 179 56 420 -134 548 l-50 34 -17 -80 c-51 -238
-246 -410 -614 -540 -234 -83 -431 -114 -714 -114 -283 0 -480 31 -714 114
-368 130 -563 302 -614 540 l-17 80 -50 -34z"/>
<path d="M3010 2750 c-20 -10 -55 -45 -79 -79 -99 -141 -149 -308 -137 -456
14 -181 69 -288 168 -329 50 -21 84 -20 108 4 29 29 25 67 -15 146 -19 38 -35
79 -35 91 0 37 21 71 52 84 38 16 271 7 293 -11 23 -19 18 -69 -16 -140 -42
-87 -44 -143 -6 -176 118 -101 268 120 268 396 0 145 -41 261 -137 389 -74 98
-81 101 -269 101 -137 -1 -165 -4 -195 -20z"/>
</g>
</svg>
